<?xml version="1.0" standalone="no"?>
<!DOCTYPE svg PUBLIC "-//W3C//DTD SVG 20010904//EN"
 "http://www.w3.org/TR/2001/REC-SVG-20010904/DTD/svg10.dtd">
<svg version="1.0" xmlns="http://www.w3.org/2000/svg"
 width="600.000000pt" height="600.000000pt" viewBox="0 0 600.000000 600.000000"
 preserveAspectRatio="xMidYMid meet">
<metadata>
Created by potrace 1.11, written by Peter Selinger 2001-2013
</metadata>
<g transform="translate(0.000000,600.000000) scale(0.100000,-0.100000)"
fill="#000000" stroke="none">
<path d="M2808 5595 c-1 -2 -37 -6 -78 -9 -657 -55 -1331 -399 -1770 -905 -30
-35 -60 -69 -65 -75 -36 -38 -189 -254 -221 -311 -141 -249 -182 -338 -255
-553 -38 -112 -95 -344 -105 -425 -3 -23 -7 -51 -9 -62 -13 -64 -20 -193 -20
-365 0 -207 7 -308 31 -450 4 -19 8 -48 11 -65 9 -61 63 -263 96 -360 234
-688 741 -1262 1391 -1574 59 -28 138 -63 174 -77 37 -14 83 -32 102 -39 52
-21 193 -62 290 -84 74 -18 137 -29 325 -57 22 -3 139 -7 260 -8 244 -3 415
13 623 60 277 62 576 181 784 311 21 13 40 23 42 23 13 0 259 176 298 213 7 6
33 28 58 48 187 151 436 452 572 689 158 275 280 604 323 870 4 25 9 52 10 61
2 9 6 40 10 70 4 30 9 68 12 84 9 68 10 457 1 540 -12 107 -50 324 -72 415
-56 223 -168 493 -293 705 -28 47 -119 188 -136 210 -118 154 -284 339 -388
430 -284 250 -548 406 -919 544 -101 37 -313 93 -405 106 -22 4 -47 8 -55 10
-8 2 -42 7 -75 11 -33 3 -69 8 -80 11 -23 5 -462 13 -467 8z"/>
</g>
</svg>
