<svg id="Layer_1" data-name="Layer 1" xmlns="http://www.w3.org/2000/svg" viewBox="0 0 801 800.5"><defs><style>.cls-1{fill:#0e5f76;}.cls-2{fill:none;stroke:#423a64;stroke-linecap:round;stroke-linejoin:round;}.cls-3{fill:#24272b;}</style></defs><title>contact2</title><rect class="cls-1" x="0.5" width="800" height="800"/><path class="cls-2" d="M800,423.41C767.63,556,737.47,757.11,608.71,800" transform="translate(0.5)"/><path class="cls-2" d="M0,365c17.91,18.49,38.83,30.8,62.82,34.93C206.15,424.56,223.33,731.68,495.8,800" transform="translate(0.5)"/><path class="cls-3" d="M263.05,416.87C210.93,215.25,62.57,310.71,39,141.6,31.38,86.69,31.92,39.16,36.14,0H800V107.63c-12.44,26.81-22.59,58.06-26.22,99.33-13.35,151.71-58.24,383.59-241,430.56C413.48,668.16,298.31,553.29,263.05,416.87Z" transform="translate(0.5)"/><path class="cls-1" d="M259,91.37C229.07,96.26,199.88,56.55,195.05,0H593.41C575,85,518.87,148.77,435.7,82.26,313.64-15.35,308.57,83.27,259,91.37Z" transform="translate(0.5)"/></svg>