<svg id="Layer_1" data-name="Layer 1" xmlns="http://www.w3.org/2000/svg" xmlns:xlink="http://www.w3.org/1999/xlink" viewBox="0 0 801 747.96"><defs><style>.cls-1{mask:url(#mask);}.cls-2{mix-blend-mode:multiply;fill:url(#linear-gradient);}.cls-3{fill:#0e5f76;}.cls-4{fill:none;stroke:#423a64;stroke-linecap:round;stroke-linejoin:round;}.cls-5{fill:#24272b;}.cls-6{fill:#d8d8d8;}.cls-7{fill:#f6f4f4;}.cls-8{fill:#262828;}.cls-9{mask:url(#mask-2);}.cls-10{fill:url(#linear-gradient-2);}.cls-11{fill:url(#linear-gradient-3);}.cls-12{fill:url(#linear-gradient-4);}.cls-13{fill:url(#linear-gradient-5);}.cls-14{fill:url(#linear-gradient-6);}.cls-15{fill:#f3f3f3;}.cls-16{fill:#f9f9f9;}.cls-17{filter:url(#luminosity-noclip-2);}.cls-18{filter:url(#luminosity-noclip);}</style><filter id="luminosity-noclip" x="384.61" y="-8592" width="31.73" height="32766" filterUnits="userSpaceOnUse" color-interpolation-filters="sRGB"><feFlood flood-color="#fff" result="bg"/><feBlend in="SourceGraphic" in2="bg"/></filter><mask id="mask" x="384.61" y="-8592" width="31.73" height="32766" maskUnits="userSpaceOnUse"><g class="cls-18"/></mask><linearGradient id="linear-gradient" x1="384.61" y1="174.49" x2="416.34" y2="174.49" gradientUnits="userSpaceOnUse"><stop offset="0.26" stop-color="#fff"/><stop offset="0.29" stop-color="#fdfdfd"/><stop offset="0.31" stop-color="#f5f5f5"/><stop offset="0.32" stop-color="#e7e7e7"/><stop offset="0.33" stop-color="#d4d4d4"/><stop offset="0.35" stop-color="#bababa"/><stop offset="0.36" stop-color="#9c9c9c"/><stop offset="0.36" stop-color="#8a8a8a"/><stop offset="0.37" stop-color="#949494"/><stop offset="0.39" stop-color="#b5b5b5"/><stop offset="0.41" stop-color="#d0d0d0"/><stop offset="0.44" stop-color="#e5e5e5"/><stop offset="0.47" stop-color="#f4f4f4"/><stop offset="0.5" stop-color="#fcfcfc"/><stop offset="0.56" stop-color="#fff"/><stop offset="0.64" stop-color="#fcfcfc"/><stop offset="0.69" stop-color="#f4f4f4"/><stop offset="0.73" stop-color="#e6e6e6"/><stop offset="0.77" stop-color="#d2d2d2"/><stop offset="0.81" stop-color="#b7b7b7"/><stop offset="0.84" stop-color="#989898"/><stop offset="0.86" stop-color="gray"/><stop offset="0.87" stop-color="#9e9e9e"/><stop offset="0.9" stop-color="#c1c1c1"/><stop offset="0.92" stop-color="#dcdcdc"/><stop offset="0.95" stop-color="#efefef"/><stop offset="0.97" stop-color="#fbfbfb"/><stop offset="1" stop-color="#fff"/></linearGradient><filter id="luminosity-noclip-2" x="384.61" y="172.6" width="31.73" height="3.77" filterUnits="userSpaceOnUse" color-interpolation-filters="sRGB"><feFlood flood-color="#fff" result="bg"/><feBlend in="SourceGraphic" in2="bg"/></filter><mask id="mask-2" x="385.11" y="120.57" width="31.73" height="3.77" maskUnits="userSpaceOnUse"><g class="cls-17"><g transform="translate(0.5 -52.04)"><g class="cls-1"><path class="cls-2" d="M414.45,176.37h-28a1.89,1.89,0,0,1,0-3.77h28a1.89,1.89,0,1,1,0,3.77Zm-28-3.75a1.87,1.87,0,0,0,0,3.73h28a1.87,1.87,0,1,0,0-3.73Z"/></g></g></g></mask><linearGradient id="linear-gradient-2" x1="384.61" y1="174.49" x2="416.34" y2="174.49" gradientUnits="userSpaceOnUse"><stop offset="0.26" stop-color="#272525"/><stop offset="0.28" stop-color="#292727"/><stop offset="0.3" stop-color="#312f2f"/><stop offset="0.31" stop-color="#3f3d3d"/><stop offset="0.32" stop-color="#525050"/><stop offset="0.33" stop-color="#6b6a6a"/><stop offset="0.34" stop-color="#8a8989"/><stop offset="0.35" stop-color="#aeaeae"/><stop offset="0.36" stop-color="#d7d7d7"/><stop offset="0.36" stop-color="#ececec"/><stop offset="0.36" stop-color="#e5e5e5"/><stop offset="0.38" stop-color="#b9b9b9"/><stop offset="0.4" stop-color="#929191"/><stop offset="0.42" stop-color="#716f6f"/><stop offset="0.44" stop-color="#565454"/><stop offset="0.46" stop-color="#413f3f"/><stop offset="0.48" stop-color="#323030"/><stop offset="0.51" stop-color="#2a2828"/><stop offset="0.56" stop-color="#272525"/><stop offset="0.63" stop-color="#292828"/><stop offset="0.67" stop-color="#323030"/><stop offset="0.71" stop-color="#403e3e"/><stop offset="0.74" stop-color="#545252"/><stop offset="0.77" stop-color="#6e6d6d"/><stop offset="0.8" stop-color="#8e8d8d"/><stop offset="0.82" stop-color="#b4b3b3"/><stop offset="0.84" stop-color="#dfdfdf"/><stop offset="0.86" stop-color="#f8f8f8"/><stop offset="0.86" stop-color="#e5e4e4"/><stop offset="0.88" stop-color="#b3b2b2"/><stop offset="0.9" stop-color="#888787"/><stop offset="0.92" stop-color="#656363"/><stop offset="0.94" stop-color="#4a4848"/><stop offset="0.96" stop-color="#363535"/><stop offset="0.98" stop-color="#2b2929"/><stop offset="1" stop-color="#272525"/></linearGradient><linearGradient id="linear-gradient-3" x1="382.93" y1="597.91" x2="414.98" y2="597.91" gradientUnits="userSpaceOnUse"><stop offset="0" stop-color="#ea826e"/><stop offset="0.45" stop-color="#fa948b"/><stop offset="1" stop-color="#f18e9e"/></linearGradient><linearGradient id="linear-gradient-4" x1="382.9" y1="597.91" x2="415.01" y2="597.91" gradientUnits="userSpaceOnUse"><stop offset="0" stop-color="#9a5a54"/><stop offset="0.16" stop-color="#c07169"/><stop offset="0.34" stop-color="#eebdb9"/><stop offset="0.39" stop-color="#fad2cf"/><stop offset="0.44" stop-color="#faccc9"/><stop offset="0.5" stop-color="#fabdb8"/><stop offset="0.58" stop-color="#faa39b"/><stop offset="0.62" stop-color="#fa948b"/><stop offset="0.66" stop-color="#f18f86"/><stop offset="0.73" stop-color="#d88078"/><stop offset="0.81" stop-color="#b16861"/><stop offset="0.82" stop-color="#ac655e"/><stop offset="1" stop-color="#8e534d"/></linearGradient><linearGradient id="linear-gradient-5" x1="398.96" y1="574.05" x2="398.96" y2="606.11" xlink:href="#linear-gradient-3"/><linearGradient id="linear-gradient-6" x1="382.9" y1="582.01" x2="415.01" y2="582.01" gradientUnits="userSpaceOnUse"><stop offset="0" stop-color="#9a5a54"/><stop offset="0.05" stop-color="#a36560"/><stop offset="0.13" stop-color="#bc847f"/><stop offset="0.24" stop-color="#e3b5b1"/><stop offset="0.3" stop-color="#fad2cf"/><stop offset="0.4" stop-color="#fab2ab"/><stop offset="0.5" stop-color="#fa9c94"/><stop offset="0.55" stop-color="#fa948b"/><stop offset="0.63" stop-color="#fa978e"/><stop offset="0.69" stop-color="#faa099"/><stop offset="0.75" stop-color="#fab0aa"/><stop offset="0.81" stop-color="#fac6c2"/><stop offset="0.83" stop-color="#fad1ce"/><stop offset="0.86" stop-color="#dcaeaa"/><stop offset="0.9" stop-color="#ba8782"/><stop offset="0.93" stop-color="#a26a65"/><stop offset="0.96" stop-color="#935953"/><stop offset="0.98" stop-color="#8e534d"/></linearGradient></defs><title>contact1</title><path class="cls-3" d="M800,216.4V800H0V539.69C20.11,521.42,35.38,500,40.84,471.92,60.4,371.38-24.33,187.25,94.47,95.56S377.64,65.78,408.3,199.72s168.39,88.17,287.79,32.11C731.55,215.19,767,211.33,800,216.4Z" transform="translate(0.5 -52.04)"/><path class="cls-4" d="M0,586.84q4.77-3.92,9.79-7.47C87.66,524.26,62.11,251.72,369,288.48c267.85,32.07,317.54,179.24,431,225.59" transform="translate(0.5 -52.04)"/><path class="cls-5" d="M800,615V800H0V762.5c27.67-33.87,73.33-59.24,81.45-115.77,13.09-91,59.78-230.29,258.59-259.42,129.71-19,256.36,49.25,296.12,130.85C671.17,590,742.37,598.46,800,615Z" transform="translate(0.5 -52.04)"/><path class="cls-3" d="M711.92,800H273.65c3.68-63.65,68.82-127.27,177.55-80.31,134,57.87,138.57-1.28,192.53-6.4C685.93,709.29,727.5,750.16,711.92,800Z" transform="translate(0.5 -52.04)"/><path class="cls-6" d="M329,95H472.69a43.79,43.79,0,0,1,43.79,43.79V522A44.94,44.94,0,0,1,471.53,567H329a43.79,43.79,0,0,1-43.79-43.79V138.75A43.79,43.79,0,0,1,329,95Z"/><rect class="cls-7" x="287.83" y="97.39" width="226.02" height="466.46" rx="43.06"/><rect class="cls-5" x="298.42" y="148.25" width="205.25" height="364.37"/><path class="cls-8" d="M414.46,176.36h-28a1.87,1.87,0,0,1-1.87-1.87h0a1.88,1.88,0,0,1,1.87-1.88h28a1.88,1.88,0,0,1,1.87,1.88h0A1.87,1.87,0,0,1,414.46,176.36Z" transform="translate(0.5 -52.04)"/><g class="cls-9"><path class="cls-10" d="M414.45,176.37h-28a1.89,1.89,0,0,1,0-3.77h28a1.89,1.89,0,1,1,0,3.77Zm-28-3.75a1.87,1.87,0,0,0,0,3.73h28a1.87,1.87,0,1,0,0-3.73Z" transform="translate(0.5 -52.04)"/></g><path class="cls-11" d="M382.93,589.71v11.55a4.85,4.85,0,0,0,4.84,4.85h22.37a4.85,4.85,0,0,0,4.84-4.85V589.71Z" transform="translate(0.5 -52.04)"/><path class="cls-12" d="M410.14,606.13H387.77a4.88,4.88,0,0,1-4.87-4.87V589.68H415v11.58A4.88,4.88,0,0,1,410.14,606.13ZM383,589.73v11.53a4.83,4.83,0,0,0,4.82,4.82h22.37a4.82,4.82,0,0,0,4.82-4.82V589.73Z" transform="translate(0.5 -52.04)"/><path class="cls-13" d="M415,590V578.9a4.85,4.85,0,0,0-4.84-4.85H387.77a4.85,4.85,0,0,0-4.84,4.85V590Z" transform="translate(0.5 -52.04)"/><path class="cls-14" d="M415,590H382.9V578.9a4.88,4.88,0,0,1,4.87-4.87h22.37A4.88,4.88,0,0,1,415,578.9Zm-32.06,0h32v-11a4.83,4.83,0,0,0-4.82-4.83H387.77A4.84,4.84,0,0,0,383,578.9Z" transform="translate(0.5 -52.04)"/><rect class="cls-15" x="384.05" y="522.63" width="30.82" height="30.82" rx="7.83"/><path class="cls-3" d="M467.23,267.12H335.44a1.73,1.73,0,0,1-1.74-1.73V236a1.68,1.68,0,0,0-.5-1.22L324,225.44a1.73,1.73,0,0,1,1.24-2.95h142a1.73,1.73,0,0,1,1.74,1.73v41.17A1.73,1.73,0,0,1,467.23,267.12Z" transform="translate(0.5 -52.04)"/><rect class="cls-16" x="344.04" y="178.66" width="111.8" height="5.47" rx="2.73"/><rect class="cls-16" x="344.04" y="189.11" width="111.8" height="5.47" rx="2.73"/><rect class="cls-16" x="344.04" y="199.56" width="55.9" height="5.47" rx="2.73"/><path class="cls-3" d="M466.79,380.27H335.88a2.19,2.19,0,0,1-2.18-2.18v-18.3a2.19,2.19,0,0,0-.62-1.53l-8.35-8.47a2.18,2.18,0,0,1,1.55-3.71H466.79a2.18,2.18,0,0,1,2.18,2.18v29.83A2.19,2.19,0,0,1,466.79,380.27Z" transform="translate(0.5 -52.04)"/><rect class="cls-16" x="344.04" y="302.26" width="111.8" height="5.47" rx="2.73"/><rect class="cls-16" x="344.04" y="312.7" width="47.67" height="5.47" rx="2.73"/><path class="cls-3" d="M335.39,328.92H467.28a1.69,1.69,0,0,0,1.69-1.68V297.79a1.67,1.67,0,0,1,.48-1.18l9.32-9.47a1.68,1.68,0,0,0-1.19-2.86H335.39A1.69,1.69,0,0,0,333.7,286v41.28A1.69,1.69,0,0,0,335.39,328.92Z" transform="translate(0.5 -52.04)"/><rect class="cls-16" x="347.33" y="292.5" width="111.8" height="5.47" rx="2.73" transform="translate(806.96 538.43) rotate(-180)"/><rect class="cls-16" x="347.33" y="302.95" width="60.32" height="5.47" rx="2.73" transform="translate(755.48 559.32) rotate(180)"/><rect class="cls-16" x="347.33" y="313.39" width="74.42" height="5.47" rx="2.73" transform="translate(769.58 580.22) rotate(-180)"/></svg>