<svg id="Layer_1" data-name="Layer 1" xmlns="http://www.w3.org/2000/svg" viewBox="0 0 355.29 528.19"><defs><style>.cls-1{fill:#0e5f76;}.cls-2{fill:#24272b;}.cls-3{fill:#fff;}</style></defs><title>pdficon</title><path class="cls-1" d="M195.87,78.4l-69.08,71.44a8.16,8.16,0,0,0-2.3,5.68V483.66a8.17,8.17,0,0,0,8.17,8.18H466a8.18,8.18,0,0,0,8.18-8.18V84.08A8.17,8.17,0,0,0,466,75.91H201.75A8.18,8.18,0,0,0,195.87,78.4Zm-.11,56.42h0a8.17,8.17,0,0,1-8.17,8.18h0a8.18,8.18,0,0,1-5.33-14.37h0A8.17,8.17,0,0,1,195.76,134.82ZM440,467.52H157a8.17,8.17,0,0,1-8.17-8.17V179.41a8.18,8.18,0,0,1,7.89-8.17l57.91-2a8.18,8.18,0,0,0,7.9-8.27l-.65-54.17A8.18,8.18,0,0,1,230,98.56H440a8.17,8.17,0,0,1,8.18,8.17V459.35A8.17,8.17,0,0,1,440,467.52Z" transform="translate(-118.87 -35.81)"/><path class="cls-2" d="M343.71,470.27l32.71,88.14a5,5,0,0,0,9.53-.3l5.27-17.59a5,5,0,0,1,7.53-2.79l15.46,9.89a5,5,0,0,0,7.43-6l-32.71-88.15a5,5,0,0,0-6.46-3l-35.79,13.28A5,5,0,0,0,343.71,470.27Z" transform="translate(-118.87 -35.81)"/><path class="cls-3" d="M381.12,564a7.23,7.23,0,0,1-6.86-4.79l-32.71-88.14h0a7.32,7.32,0,0,1,4.33-9.42l35.78-13.28a7.34,7.34,0,0,1,9.43,4.32l32.71,88.14A7.33,7.33,0,0,1,413,549.56l-15.46-9.89a2.76,2.76,0,0,0-2.42-.26,2.71,2.71,0,0,0-1.66,1.78l-5.27,17.58a7.24,7.24,0,0,1-6.79,5.23Zm3.1-111.48a2.61,2.61,0,0,0-1,.17L347.48,466a2.71,2.71,0,0,0-1.6,3.5l32.7,88.14a2.73,2.73,0,0,0,5.17-.16L389,539.86a7.34,7.34,0,0,1,11-4.07l15.47,9.89a2.72,2.72,0,0,0,4-3.24l-32.71-88.15a2.68,2.68,0,0,0-1.42-1.52A2.65,2.65,0,0,0,384.22,452.52Z" transform="translate(-118.87 -35.81)"/><path class="cls-2" d="M348.86,560.73a5.4,5.4,0,0,1-5.16-3.67l-7.61-21.81a2.42,2.42,0,0,0-2.27-1.61,2.32,2.32,0,0,0-1.36.44l-18.9,13.31a5.43,5.43,0,0,1-3.13,1,5.55,5.55,0,0,1-4.46-2.29,5.35,5.35,0,0,1-.75-4.86l30.09-93.7a5.46,5.46,0,0,1,5.2-3.79,5.55,5.55,0,0,1,1.67.26l38.44,12.35a5.45,5.45,0,0,1,3.53,6.87l-30.09,93.7a5.38,5.38,0,0,1-5.2,3.79Z" transform="translate(-118.87 -35.81)"/><path class="cls-3" d="M340.51,445.3a3.86,3.86,0,0,1,1.2.19l38.44,12.34a3.93,3.93,0,0,1,2.54,4.94l-30.09,93.7a3.93,3.93,0,0,1-7.45.09l-7.61-21.82a3.94,3.94,0,0,0-6-1.92l-18.89,13.31a3.86,3.86,0,0,1-2.25.73,3.94,3.94,0,0,1-3.75-5.14L336.77,448a3.94,3.94,0,0,1,3.74-2.72m0-3.08a7,7,0,0,0-6.67,4.86l-30.09,93.7a6.93,6.93,0,0,0,1,6.24,7.1,7.1,0,0,0,5.7,2.92,6.93,6.93,0,0,0,4-1.3l18.89-13.3a.79.79,0,0,1,.48-.16.86.86,0,0,1,.82.57l7.61,21.82a7,7,0,0,0,13.27-.16l30.1-93.7a7,7,0,0,0-4.53-8.8l-38.44-12.35a7,7,0,0,0-2.14-.34Z" transform="translate(-118.87 -35.81)"/><rect class="cls-2" x="58.17" y="242.79" width="248.21" height="19.29" rx="6.27"/><rect class="cls-2" x="58.17" y="274.38" width="248.21" height="19.29" rx="6.27"/><rect class="cls-2" x="58.17" y="305.96" width="248.21" height="19.29" rx="6.27"/><rect class="cls-2" x="58.17" y="337.55" width="248.21" height="19.29" rx="6.27"/><rect class="cls-2" x="58.17" y="369.13" width="248.21" height="19.29" rx="6.27"/><path class="cls-1" d="M364,501.54a8.1,8.1,0,0,1-5.82-2.45l-7.43-7.54a4.93,4.93,0,0,0-3.48-1.46,4.54,4.54,0,0,0-.82.07L336,491.88a8.22,8.22,0,0,1-1.3.1,8.19,8.19,0,0,1-8.1-7L325,474.58a5,5,0,0,0-2.7-3.7l-9.46-4.72a8.19,8.19,0,0,1-3.6-11.06l4.87-9.43a4.91,4.91,0,0,0,0-4.52l-4.88-9.43a8.18,8.18,0,0,1,3.58-11.05l9.49-4.74a5,5,0,0,0,2.69-3.7l1.57-10.45a8.23,8.23,0,0,1,8.08-6.95,8.3,8.3,0,0,1,1.32.11l10.45,1.72a4.47,4.47,0,0,0,.82.07,4.87,4.87,0,0,0,3.5-1.47l7.43-7.56a8.31,8.31,0,0,1,5.82-2.41,8.19,8.19,0,0,1,5.81,2.4l7.45,7.57a4.91,4.91,0,0,0,3.51,1.47,4.33,4.33,0,0,0,.8-.07l10.46-1.75a8.47,8.47,0,0,1,1.32-.1,8,8,0,0,1,4.82,1.58,8.19,8.19,0,0,1,3.27,5.37L403,412.2a5,5,0,0,0,2.7,3.71l9.45,4.72a8.17,8.17,0,0,1,4.12,4.78,8.29,8.29,0,0,1-.51,6.27l-4.89,9.43a5,5,0,0,0,0,4.53l4.88,9.43a8.17,8.17,0,0,1-3.58,11.06l-9.48,4.73a4.94,4.94,0,0,0-2.69,3.7L401.47,485a8.23,8.23,0,0,1-8.11,7,9.08,9.08,0,0,1-1.28-.1l-10.47-1.7a5,5,0,0,0-.85-.07,4.93,4.93,0,0,0-3.48,1.47l-7.43,7.53A8.15,8.15,0,0,1,364,501.54Z" transform="translate(-118.87 -35.81)"/><path class="cls-3" d="M364,386.82a6.69,6.69,0,0,1,4.73,2l7.43,7.56a6.53,6.53,0,0,0,4.61,1.93,6.2,6.2,0,0,0,1.05-.09l10.47-1.75a6.32,6.32,0,0,1,1.06-.09,6.55,6.55,0,0,1,3.91,1.29A6.62,6.62,0,0,1,400,402l1.57,10.44a6.5,6.5,0,0,0,3.53,4.85l9.46,4.72a6.64,6.64,0,0,1,2.92,9l-4.88,9.41a6.51,6.51,0,0,0,0,6l4.88,9.42a6.64,6.64,0,0,1-2.92,9l-9.46,4.72a6.5,6.5,0,0,0-3.53,4.85L400,484.77a6.67,6.67,0,0,1-6.59,5.65,7.17,7.17,0,0,1-1-.08l-10.47-1.7a6.56,6.56,0,0,0-1.08-.09,6.49,6.49,0,0,0-4.58,1.92L368.76,498a6.62,6.62,0,0,1-9.46,0l-7.42-7.54a6.49,6.49,0,0,0-4.58-1.92,6.68,6.68,0,0,0-1.09.09l-10.45,1.73a7.42,7.42,0,0,1-1.05.08,6.67,6.67,0,0,1-6.58-5.65l-1.57-10.44a6.51,6.51,0,0,0-3.52-4.85l-9.47-4.73a6.64,6.64,0,0,1-2.92-9l4.87-9.43a6.43,6.43,0,0,0,0-5.94L310.65,431a6.65,6.65,0,0,1,2.92-9L323,417.3a6.48,6.48,0,0,0,3.52-4.84L328.13,402a6.54,6.54,0,0,1,2.65-4.35,6.64,6.64,0,0,1,3.91-1.29,6.35,6.35,0,0,1,1.07.09l10.45,1.72a6.35,6.35,0,0,0,1.07.09,6.45,6.45,0,0,0,4.6-1.93l7.42-7.56a6.8,6.8,0,0,1,4.73-2m0-3.07a9.84,9.84,0,0,0-6.89,2.85l-7.46,7.58a3.3,3.3,0,0,1-2.4,1,3.43,3.43,0,0,1-.56,0l-10.46-1.72a9.07,9.07,0,0,0-1.57-.13,9.77,9.77,0,0,0-9.61,8.27L323.52,412a3.42,3.42,0,0,1-1.87,2.56l-9.46,4.72a9.73,9.73,0,0,0-4.28,13.13l4.88,9.43a3.38,3.38,0,0,1,0,3.11l-4.88,9.44a9.72,9.72,0,0,0,4.25,13.13l9.49,4.74a3.41,3.41,0,0,1,1.86,2.56l1.57,10.44a9.74,9.74,0,0,0,11.15,8.14l10.47-1.72a3.19,3.19,0,0,1,.59-.06,3.38,3.38,0,0,1,2.39,1l7.42,7.53a9.71,9.71,0,0,0,13.86,0l7.41-7.52a3.28,3.28,0,0,1,2.94-1l10.51,1.7a9.86,9.86,0,0,0,1.53.12,9.74,9.74,0,0,0,9.63-8.26l1.57-10.44a3.4,3.4,0,0,1,1.87-2.56l9.45-4.72a9.72,9.72,0,0,0,4.29-13.12l-4.89-9.45a3.45,3.45,0,0,1,0-3.13l4.88-9.41a9.73,9.73,0,0,0-4.26-13.14l-9.48-4.73a3.41,3.41,0,0,1-1.86-2.55L403,401.53a9.72,9.72,0,0,0-3.9-6.39,9.55,9.55,0,0,0-5.71-1.87,10,10,0,0,0-1.55.12l-10.48,1.76a3.46,3.46,0,0,1-3-1L371,386.63a9.71,9.71,0,0,0-6.92-2.88Z" transform="translate(-118.87 -35.81)"/><g id="Layer_5" data-name="Layer 5"><path class="cls-2" d="M315.56,212.59a14.08,14.08,0,0,1-13.92,0l-31.51-19.32s-2.84-1.75-2.84,2.2v19.3c0,10.16,18.49,21.12,41.31,21.12s41.31-11,41.31-21.12V194.38c0-3.17-2-1.62-2-1.62Z" transform="translate(-118.87 -35.81)"/><path class="cls-2" d="M361,177.89c2.42-1.48,2.42-3.91,0-5.4l-48-24a9.28,9.28,0,0,0-8.8,0l-48,24c-2.43,1.49-2.43,3.92,0,5.4l48,29.44a9.22,9.22,0,0,0,8.8,0" transform="translate(-118.87 -35.81)"/><path class="cls-2" d="M359,221.53V189s0-1.54-.89-1a27,27,0,0,0-3.17,2,2.74,2.74,0,0,0-.56,2.07v29.52a.86.86,0,0,1-.53.72,5.61,5.61,0,1,0,5.66,0A.83.83,0,0,1,359,221.53Z" transform="translate(-118.87 -35.81)"/></g><text x="-118.87" y="-35.81"/></svg>